<svg width="27" height="27" viewBox="0 0 27 27" fill="none" xmlns="http://www.w3.org/2000/svg">
<path d="M9.65664 23.5771L1 26L3.42386 17.3468L19.2751 1.57857C19.4542 1.39541 19.6683 1.24989 19.9044 1.15053C20.1406 1.05118 20.3943 1 20.6506 1C20.9068 1 21.1606 1.05118 21.3968 1.15053C21.6328 1.24989 21.8469 1.39541 22.026 1.57857L25.431 5.00142C25.6112 5.18018 25.7543 5.39287 25.8521 5.62718C25.9498 5.86152 26 6.11286 26 6.36671C26 6.62056 25.9498 6.87191 25.8521 7.10624C25.7543 7.34057 25.6112 7.55325 25.431 7.73201L9.65664 23.5771Z" stroke="#050505" stroke-linecap="round" stroke-linejoin="round"/>
</svg>
